Coordinates
version=1
nRows=9
nColumns=24
inDegrees=yes

Units are S.I. units (second, meters, Newtons, ...)
Angles are in degrees.

endheader
time	pelvis_tilt	pelvis_list	pelvis_rotation	pelvis_tx	pelvis_ty	pelvis_tz	hip_flexion_r	hip_adduction_r	hip_rotation_r	knee_angle_r	ankle_angle_r	subtalar_angle_r	mtp_angle_r	hip_flexion_l	hip_adduction_l	hip_rotation_l	knee_angle_l	ankle_angle_l	subtalar_angle_l	mtp_angle_l	lumbar_extension	lumbar_bending	lumbar_rotation
      3.30000000	     -3.74720483	      4.00285873	     -6.98964282	      0.08017588	      0.96247576	     -0.00875676	     12.31044284	    -12.81677553	     -1.74256239	    -56.52167929	     -2.12778677	      0.00000000	      0.00000000	      4.73491385	      3.34144676	     -9.82964254	     -3.83595901	      4.10970429	      0.00000000	      0.00000000	     -1.13133086	     -8.05088189	      1.93285860
      3.31000000	     -3.80919342	      3.64964833	     -7.01717386	      0.07978847	      0.96299846	     -0.00960133	     13.19967097	    -12.27957358	     -1.59749850	    -56.80933318	     -1.08128161	      0.00000000	      0.00000000	      4.16083044	      3.09293561	     -9.48328485	     -3.60287580	      4.45582916	      0.00000000	      0.00000000	     -1.02718513	     -7.63036003	      1.57374673
      3.32000000	     -3.84939256	      3.33751106	     -7.01115549	      0.07914214	      0.96352385	     -0.01037130	     14.08429568	    -11.78667038	     -1.50267330	    -56.93817933	     -0.35567322	      0.00000000	      0.00000000	      3.68725907	      2.88057251	     -9.35960781	     -3.56843545	      4.73878201	      0.00000000	      0.00000000	     -0.98479792	     -7.26911690	      1.13191737
      3.33000000	     -3.85504783	      3.09126995	     -7.05622722	      0.07837028	      0.96400862	     -0.01110252	     14.97823842	    -11.36810815	     -1.39208415	    -56.94479149	      0.23405110	      0.00000000	      0.00000000	      3.16714191	      2.74047561	     -9.24160171	     -3.47568813	      4.98067870	      0.00000000	      0.00000000	     -0.98704327	     -6.97235007	      0.73150777
      3.34000000	     -3.96103422	      2.74974624	     -7.11841298	      0.07756406	      0.96436477	     -0.01162235	     15.87919542	    -10.78805881	     -1.26464006	    -56.66842140	      1.07473185	      0.00000000	      0.00000000	      2.82573755	      2.45954067	     -9.25018496	     -3.56730228	      5.31303393	      0.00000000	      0.00000000	     -0.87720055	     -6.57249640	      0.34290677
      3.35000000	     -3.99774756	      2.54167878	     -7.22872517	      0.07673388	      0.96467369	     -0.01208964	     16.75873645	    -10.36944992	     -1.12587000	    -56.29795274	      1.75779521	      0.00000000	      0.00000000	      2.34024828	      2.33705582	     -9.20065878	     -3.47151391	      5.57846036	      0.00000000	      0.00000000	     -0.83714546	     -6.32352599	     -0.02078206
      3.36000000	     -4.06387842	      2.29405398	     -7.38751718	      0.07577500	      0.96489026	     -0.01243425	     17.62693536	     -9.90128629	     -1.01164986	    -55.70344607	      2.60063033	      0.00000000	      0.00000000	      1.94425033	      2.15573166	     -9.27910250	     -3.49945724	      5.84377580	      0.00000000	      0.00000000	     -0.77908494	     -6.01835529	     -0.33461055
      3.37000000	     -4.15002797	      2.04113910	     -7.57005025	      0.07467263	      0.96499280	     -0.01263570	     18.50466046	     -9.40890895	     -0.89172814	    -54.96251634	      3.41502420	      0.00000000	      0.00000000	      1.60304437	      1.95212854	     -9.42984788	     -3.58782584	      6.15276109	      0.00000000	      0.00000000	     -0.72638456	     -5.71074073	     -0.63991480
      3.38000000	     -4.23337949	      1.82884970	     -7.79033403	      0.07361134	      0.96501603	     -0.01277205	     19.34295583	     -8.97173936	     -0.79263538	    -54.02198484	      4.17267832	      0.00000000	      0.00000000	      1.25366684	      1.79383573	     -9.59716270	     -3.66914541	      6.46357372	      0.00000000	      0.00000000	     -0.66142955	     -5.43544185	     -0.93388464
